<svg xmlns="http://www.w3.org/2000/svg" width="67" height="46" viewBox="0 0 67 46" fill="none">
<g clip-path="url(#clip0_301_10)">
<path d="M67.0002 31.585C67.0002 35.4265 65.4357 38.9053 62.9086 41.4245C60.3849 43.9437 56.8953 45.5 53.0383 45.5H26.9138C19.1795 45.5 12.9077 39.2511 12.9077 31.5375C12.9077 30.4695 13.0268 29.4285 13.2546 28.4283C13.2648 28.391 13.275 28.3537 13.2818 28.3164C13.5063 28.33 13.7342 28.3368 13.9621 28.3368H43.532C47.3856 28.3368 50.8786 26.7771 53.4023 24.2579C55.062 22.6067 56.3069 20.5384 56.9633 18.226C57.0245 18.0158 57.0789 17.8056 57.1266 17.592C57.368 16.5748 57.4939 15.5135 57.4939 14.4184C57.4939 12.2348 56.9871 10.1666 56.0858 8.32886L61.8236 18.6634L65.15 24.6546L65.3132 24.9496C66.3914 26.9229 67.0002 29.181 67.0002 31.585Z" fill="white"/>
<path d="M54.0925 14.4659C54.0925 15.5339 53.9734 16.5748 53.7456 17.575C53.7354 17.6123 53.7252 17.6496 53.7184 17.6869C53.4939 17.6734 53.266 17.6666 53.0381 17.6666H23.4682C19.6146 17.6666 16.125 19.2229 13.5979 21.7421C11.9382 23.3967 10.6933 25.4616 10.0369 27.7773C9.97568 27.9876 9.92126 28.1978 9.87365 28.4114C9.63216 29.4286 9.50632 30.4932 9.50632 31.585C9.50632 33.7448 10.0029 35.7927 10.8838 37.6169L5.18001 27.34L1.89106 21.4166L1.61216 20.9148C0.581603 18.9754 0 16.7647 0 14.4184C0 10.5769 1.56115 7.0981 4.08823 4.57889C6.61531 2.05967 10.1049 0.5 13.9619 0.5H40.0864C47.8207 0.5 54.0925 6.75226 54.0925 14.4659Z" fill="white"/>
</g>
<defs>
<clipPath id="clip0_301_10">
<rect width="67" height="45" fill="white" transform="translate(0 0.5)"/>
</clipPath>
</defs>
</svg>